<?xml version="1.0" encoding="UTF-8" standalone="no"?>
<svg
   xmlns:dc="http://purl.org/dc/elements/1.1/"
   xmlns:cc="http://creativecommons.org/ns#"
   xmlns:rdf="http://www.w3.org/1999/02/22-rdf-syntax-ns#"
   xmlns:svg="http://www.w3.org/2000/svg"
   xmlns="http://www.w3.org/2000/svg"
   xmlns:sodipodi="http://sodipodi.sourceforge.net/DTD/sodipodi-0.dtd"
   xmlns:inkscape="http://www.inkscape.org/namespaces/inkscape"
   width="597"
   height="207"
   preserveAspectRatio="xMidYMid"
   style=""
   version="1.1"
   id="svg3747"
   sodipodi:docname="wix-white-horizontal-winking.svg"
   inkscape:version="0.92.3 (2405546, 2018-03-11)">
  <metadata
     id="metadata3753">
    <rdf:RDF>
      <cc:Work
         rdf:about="">
        <dc:format>image/svg+xml</dc:format>
        <dc:type
           rdf:resource="http://purl.org/dc/dcmitype/StillImage" />
        <dc:title></dc:title>
      </cc:Work>
    </rdf:RDF>
  </metadata>
  <defs
     id="defs3751" />
  <sodipodi:namedview
     pagecolor="#ffffff"
     bordercolor="#666666"
     borderopacity="1"
     objecttolerance="10"
     gridtolerance="10"
     guidetolerance="10"
     inkscape:pageopacity="0"
     inkscape:pageshadow="2"
     inkscape:window-width="1920"
     inkscape:window-height="1148"
     id="namedview3749"
     showgrid="false"
     inkscape:zoom="2.9564489"
     inkscape:cx="26.027597"
     inkscape:cy="59.39531"
     inkscape:window-x="1912"
     inkscape:window-y="-8"
     inkscape:window-maximized="1"
     inkscape:current-layer="g3745" />
  <rect
     id="backgroundrect"
     width="100%"
     height="100%"
     x="0"
     y="0"
     stroke="none"
     fill="none" />
  <g
     class="currentLayer"
     id="g3745">
    <title
       id="title3735">Layer 1</title>
    <path
       d="m 225.87127,1.5230021 c -3.802,0 -7.594,-0.01 -11.392,-0.01 -9.008,-0.02 -17.32,6.87 -23.677,12.3329999 -6.19,5.32 -11.493,11.768 -16.556,18.17 -1.816,-4.982 -4.203,-9.876 -6.68,-14.345 -3.247,-6.373 -9.615,-12.5179999 -16.744,-14.0029999 -3.61,-0.76 -7.656,-0.389 -11.32,-0.389 -3.18,-0.01 -12.205,0 -12.205,0 0,0 -9.038,-0.01 -12.212,0 -3.67,0 -7.705,-0.37 -11.32,0.389 -7.129998,1.485 -13.496998,7.6299999 -16.739998,14.0029999 -2.48,4.469 -4.87,9.363 -6.682,14.346 -5.062,-6.403 -10.368,-12.85 -16.558,-18.171 -6.36,-5.4639999 -14.664,-12.3529999 -23.68,-12.3329999 -3.797,0 -7.595,0.01 -11.392,0.01 -5.426,0.008 -10.845,0.015 -16.275,0.025 -3.95,0.018 -12.70000005,-1.02199996 -10.63,5.409 0.502,1.558 2.27,2.956 3.272,4.2499999 1.143,1.484 2.285,2.98 3.274,4.572 a 221.514,221.514 0 0 1 4.59,7.708 c 3.557,6.278 6.555,12.901 10.087,19.211 7.773,13.92 16.087,27.52 26.133,39.94 7.42,9.16 16.38,18.409998 27.467,22.955998 -8.37,15.556 -16.706,31.135 -25.048,46.703 -7.227,13.465 -14.449,26.859 -22.066,40.108 -0.366,0.646 -0.747,1.28 -1.09,1.929 -1,1.886 -2.43,4.521 -2.42,6.69 0.008,4.302 6.39,4.43 9.447,4.45 3.294,0.02 6.598,-0.07 9.894,-0.103 5.73,-0.065 11.46,-0.14 17.187,-0.198 3.392,-0.038 6.839,0.095 10.216,-0.228 8.592,-0.827 16.45,-5.123 21.52,-12.16 1.643,-2.289 17.049998,-27.557 23.283998,-37.765 2.355,-3.865 9.742,-15.416 9.742,-15.416 0,0 7.377,11.551 9.737,15.416 6.23,10.208 21.64,35.476 23.282,37.766 5.075,7.036 12.926,11.332 21.52,12.159 3.38,0.323 6.821,0.19 10.213,0.228 5.724,0.058 11.456,0.133 17.19,0.198 3.296,0.032 6.598,0.123 9.897,0.103 3.048,-0.02 9.441,-0.148 9.446,-4.45 0.013,-2.169 -1.413,-4.804 -2.427,-6.69 -0.346,-0.649 -0.722,-1.283 -1.087,-1.929 -7.61,-13.249 -14.835,-26.643 -22.057,-40.108 -8.352,-15.568 -16.688,-31.147 -25.065,-46.703 11.092,-4.547 20.053,-13.794998 27.472,-22.955998 10.055,-12.42 18.36,-26.02 26.138,-39.94 3.527,-6.31 6.525,-12.933 10.09,-19.21 a 213.912,213.912 0 0 1 4.589,-7.709 c 0.984,-1.593 2.13,-3.088 3.269,-4.571 1.012,-1.2949999 2.768,-2.6929999 3.277,-4.2509999 2.064,-6.42999996 -6.674,-5.391 -10.624,-5.409 -5.434,-0.01 -10.86,-0.017 -16.285,-0.025 z"
       id="svg_1"
       class=""
       inkscape:connector-curvature="0"
       style="fill:#f9c638" />
    <g
       id="g3807"
       transform="matrix(1.4155552,0,0,1.4155552,-52.510484,-15.480947)">
      <path
         inkscape:connector-curvature="0"
         id="path3802"
         d="m 145.29984,33.228962 c -0.6664,-0.100997 -1.15185,1.624987 -1.47266,5.109375 -0.0346,0.268335 1.57047,0.09139 2.91016,-0.0918 0.57459,-0.08184 1.14567,-0.179453 1.71484,-0.292969 0.79225,-0.166311 1.57124,-0.391886 2.33008,-0.673828 2.0635,-0.71985 3.33509,-1.683321 4.25,-2.414062 0.69906,-0.533699 1.22604,-1.137464 1.40625,-1.509766 -4.98053,0.09208 -8.68803,0.06415 -11.13867,-0.126953 z"
         style="fill:#2a2d2c;stroke-width:0.99016446" />
      <path
         inkscape:connector-curvature="0"
         id="path3800"
         d="m 148.78588,40.182701 c -1.36445,0.03812 -2.70259,0.523644 -3.70117,1.503906 -0.93076,0.915903 -1.61007,2.031435 -2.12891,3.226563 -1.15751,2.703149 -2.02313,5.769633 -1.83203,8.748047 0.096,1.346624 0.56218,2.741348 1.50977,3.726562 1.13374,1.20602 2.76837,1.679187 4.3457,2 1.56446,0.321803 3.39005,0.567305 4.85351,-0.208984 1.68724,-0.910951 2.39692,-2.989286 2.86329,-4.69336 0.5931,-2.194204 1.14469,-4.539773 0.91992,-6.833984 -0.12471,-1.26485 -0.49846,-2.645729 -1.06836,-3.789063 -0.58024,-1.151561 -1.2191,-1.988194 -1.9043,-2.492187 -1.10353,-0.815895 -2.49297,-1.225621 -3.85742,-1.1875 z"
         style="fill:#2a2d2c;stroke-width:0.99016446" />
      <path
         style="fill:#ffffff"
         inkscape:connector-curvature="0"
         class=""
         id="svg_3"
         d="m 149.03627,48.985002 c 1.262,-0.423 2.086,-0.66 2.45,-0.688 -1.792,0.133 -2.716,-0.594 -2.881,-2.154 l -0.333,-3.252 c -0.1,2.09 -0.331,3.424 -0.794,4.113 -0.304,0.429 -0.557,0.727 -0.86,0.86 l -1.062,0.335 c -0.426,0.125 -0.864,0.268 -1.22,0.268 1.952,-0.17 3.006,0.328 3.17,1.408 0.275,1.57 0.435,2.593 0.565,3.091 0.035,-2.425 0.366,-3.735 0.965,-3.98 m 2.385,4.832 -0.198,-2.012 c -0.068,1.29 -0.198,2.115 -0.466,2.548 -0.163,0.238 -0.364,0.433 -0.567,0.541 l -0.626,0.19 c -0.268,0.066 -0.528,0.166 -0.761,0.166 1.185,-0.1 1.853,0.195 1.984,0.859 0.132,0.964 0.268,1.623 0.335,1.889 0,-1.493 0.2,-2.28 0.594,-2.418 0.767,-0.263 1.26,-0.43 1.49,-0.43 -1.094,0.072 -1.685,-0.396 -1.786,-1.333" />
    </g>
    <path
       style="fill:#2a2d2c"
       d="m 110.99227,57.435002 c 0.02,-0.045 0.053,-0.128 0.053,-0.128 a 0.975,0.975 0 0 1 -0.045,0.126 c 0,0 -0.008,0 -0.008,0.002 z"
       id="path3789"
       inkscape:connector-curvature="0" />
    <g
       id="g3811"
       transform="matrix(0.81385843,0,0,0.81385843,12.717303,7.2306576)">
      <path
         inkscape:connector-curvature="0"
         id="path3791"
         d="m 109.97217,50.453346 c -0.58802,-6.034538 -1.42291,-9.022664 -2.56468,-8.846085 -4.25503,0.329157 -10.6633,0.377159 -19.29852,0.217724 0.308584,0.644598 1.241195,1.69207 2.43096,2.616109 1.59778,1.26691 3.77844,2.931552 7.36488,4.17789 a 29.538381,29.538381 0 0 0 4.02874,1.167477 c 0.28287,0.06857 1.54464,0.291441 2.97955,0.50745 2.31096,0.317156 5.08822,0.622312 5.05736,0.159435"
         style="fill:#2a2d2c;stroke-width:1.71435761" />
      <path
         sodipodi:nodetypes="cccccccccccc"
         inkscape:connector-curvature="0"
         id="svg_4"
         d="m 89.063008,60.068979 c -0.386758,1.518898 0.544134,3.072535 1.558733,4.525871 0.776857,1.127534 2.436729,-0.09786 4.729447,-1.286988 3.405118,-0.765773 6.244652,-0.373824 8.613722,1.161364 2.81578,1.793136 5.12725,2.844732 7.04932,2.046309 1.60057,-0.651616 2.38916,-1.575922 2.55324,-2.468118 0.32312,-1.971867 -1.13684,-4.001432 -3.10742,-5.791722 -0.86391,-0.791237 -2.01414,-1.528722 -3.59968,-2.134444 -3.35855,-1.29928 -9.024242,-1.291415 -12.774586,-0.210432 -1.161938,0.33365 -2.230105,0.886949 -3.196154,1.648692 -0.992288,0.786255 -1.611762,1.636514 -1.828302,2.509414 z"
         style="fill:#2a2d2c;stroke-width:1.04763949" />
    </g>
    <path
       style="fill:#ffffff"
       d="m 29.174272,194.722 c -0.501,0.95 -1.093,2.057 -1.549,3.169 -0.465,1.102 -0.781,2.222 -0.781,3.119 v 0.015 c 0.015,0.859 0.3,1.408 0.799,1.898 0.501,0.479 1.273,0.857 2.177,1.123 1.826,0.52 4.123,0.576 5.634,0.583 0.338,0.008 0.678,0.008 1.012,0.008 2.943,0 5.904,-0.083 8.872,-0.11 l 17.187,-0.198 c 0.599,0 1.195,-0.005 1.789,-0.005 0.711,0 1.415,0.005 2.114,0.005 2.107,0 4.2,-0.03 6.243,-0.228 8.366,-0.802 15.984,-4.978 20.916,-11.819 0.374,-0.503 1.656,-2.542 3.422,-5.38 1.771,-2.841 4.052998,-6.531 6.467998,-10.474 4.835,-7.873 10.246,-16.753 13.362,-21.849 2.37,-3.885 9.737,-15.42 9.742,-15.428 a 0.864,0.864 0 0 1 0.716,-0.393 c 0.286,0 0.554,0.158 0.704,0.393 0.003,0.003 7.387,11.543 9.755,15.428 4.669,7.65 14.506,23.783 19.822,32.322 1.766,2.839 3.05,4.878 3.424,5.381 4.92,6.841 12.543,11.017 20.914,11.819 2.04,0.198 4.139,0.228 6.238,0.228 0.704,0 1.408,-0.005 2.117,-0.005 0.593,0 1.19,0.005 1.79,0.005 5.722,0.065 11.454,0.133 17.19,0.198 2.966,0.027 5.924,0.11 8.868,0.11 0.333,0 0.674,0 1.012,-0.008 1.13,-0.007 2.705,-0.027 4.196,-0.273 1.495,-0.228 2.868,-0.711 3.612,-1.433 0.5,-0.49 0.784,-1.04 0.799,-1.898 V 201 c 0,-0.897 -0.316,-2.014 -0.77,-3.12 -0.457,-1.101 -1.054,-2.209 -1.557,-3.145 -0.338,-0.634 -0.704,-1.263 -1.072,-1.9 -7.616,-13.263 -14.852,-26.672 -22.07,-40.137 -8.356,-15.564 -16.685,-31.155 -25.062,-46.706 a 0.827,0.827 0 0 1 -0.048,-0.684 0.821,0.821 0 0 1 0.471,-0.498 c 10.865,-4.442 19.75,-13.586998 27.132,-22.697998 10.018,-12.372 18.294,-25.924 26.06,-39.827 2.675,-4.787 5.06,-9.775 7.635,-14.687 -4.922,7.823 -12.127,15.526 -21.49,23.094 -12.313,9.922 -33.234,19.717 -62.553,29.283 -28.28,9.241 -49.06,19.96 -62.421998,32.284998 -6.328,5.766 -10.787,9.764 -13.362,11.886 -0.591,0.604 -3.41,3.55 -8.332,9.003 -5.974,6.718 -12.307,14.752 -18.918,24.106 -2.507,3.55 -4.639,6.575 -6.47,9.188 -4.79,8.84 -9.642,17.653 -14.664,26.393 -0.366,0.636 -0.732,1.265 -1.072,1.886"
       id="svg_5"
       inkscape:connector-curvature="0" />
    <path
       d="m 251.35327,6.4980021 c -0.126,0.416 -0.551,1.04 -1.14,1.689 -0.581,0.656 -1.283,1.332 -1.886,2.1009999 l -0.01,0.01 c -1.14,1.486 -2.318,3.016 -3.355,4.697 l 0.008,-0.01 a 200.53,200.53 0 0 0 -4.622,7.766 c -3.612,6.358 -6.613,12.983 -10.097,19.216 -7.759,13.89 -16.023,27.412 -25.997,39.73 -7.358,9.095 -16.18,18.143 -26.874,22.511998 a 1.504,1.504 0 0 0 -0.84,0.879 c -0.142,0.398 -0.107,0.84 0.09,1.212 8.373,15.556 16.707,31.135 25.066,46.706 7.217,13.465 14.456,26.874 22.074,40.145 l -0.002,-0.01 c 0.37,0.66 0.734,1.286 1.07,1.897 0.503,0.942 1.086,2.026 1.527,3.093 0.444,1.058 0.727,2.11 0.722,2.864 v 0.03 c -0.02,0.699 -0.206,1.034 -0.586,1.423 -0.574,0.573 -1.847,1.05 -3.277,1.267 -1.43,0.228 -2.971,0.256 -4.096,0.266 h -1.12 c -2.898,0 -5.816,-0.076 -8.754,-0.103 -5.734,-0.07 -11.46,-0.145 -17.19,-0.198 a 80.513,80.513 0 0 0 -1.555,-0.013 c -0.812,0 -1.619,0.005 -2.425,0.005 -2.074,0 -4.121,-0.027 -6.107,-0.217 -8.184,-0.79 -15.634,-4.873 -20.446,-11.544 -0.16,-0.222 -0.587,-0.871 -1.17,-1.79 -4.118,-6.481 -16.596,-26.954 -22.052,-35.88 -2.377,-3.9 -9.75,-15.433 -9.752,-15.443 a 1.495,1.495 0 0 0 -1.26,-0.69 c -0.51,0 -0.987,0.261 -1.262,0.69 -0.008,0.01 -7.378,11.543 -9.76,15.443 -3.111,5.103 -8.527,13.97 -13.359,21.846 -2.417,3.94 -4.693998,7.628 -6.462998,10.471 a 351.48,351.48 0 0 1 -2.23,3.562 c -0.58,0.92 -1.009,1.569 -1.17,1.794 -4.804,6.668 -12.256,10.751 -20.445,11.54 -1.984,0.19 -4.028,0.218 -6.107,0.218 -0.807,0 -1.616,-0.005 -2.425,-0.005 -0.519,0 -1.035,0.003 -1.558,0.013 -5.73,0.053 -11.458,0.128 -17.187,0.198 -2.936,0.027 -5.857,0.103 -8.755,0.103 h -1.117 c -1.5,-0.008 -3.755,-0.068 -5.454,-0.564 -0.851,-0.238 -1.528,-0.591 -1.914,-0.97 -0.38,-0.388 -0.563,-0.718 -0.583,-1.427 v -0.025 c -0.005,-0.754 0.273,-1.806 0.721,-2.866 0.441,-1.067 1.02,-2.152 1.518,-3.091 0.323,-0.606 0.697,-1.233 1.072,-1.897 l -0.005,0.01 c 7.626,-13.271 14.863,-26.68 22.087,-40.15 8.35,-15.566 16.68,-31.145 25.048,-46.7 0.2,-0.374 0.233,-0.815 0.092,-1.213 a 1.509,1.509 0 0 0 -0.841,-0.88 c -10.692,-4.367998 -19.514,-13.415998 -26.874,-22.511998 -9.963,-12.32 -18.237,-25.839 -25.987,-39.727 -3.492,-6.235 -6.49,-12.86 -10.098,-19.218 a 206.353,206.353 0 0 0 -4.622,-7.763 l 0.005,0.005 c -1.04,-1.676 -2.209,-3.21 -3.356,-4.697 -0.604,-0.7769999 -1.31,-1.4579999 -1.897,-2.1139999 -0.583,-0.647 -1.017,-1.268 -1.134,-1.684 -0.18,-0.55 -0.246,-0.984 -0.246,-1.305 0.01,-0.518 0.128,-0.746 0.316,-0.987 0.283,-0.353 1.01,-0.731 2.066,-0.937 1.05,-0.215 2.35,-0.278 3.625,-0.278 1.19,0 2.347,0.05 3.327,0.05 h 0.118 c 5.428,-0.01 10.846,-0.015 16.272,-0.025 3.795,0 7.598,-0.007 11.39,-0.007 h 0.043 c 4.108,-0.003 8.179,1.583 12.04,3.905 3.854,2.317 7.459,5.3459999 10.618,8.0659999 6.062,5.206 11.312,11.576 16.36,17.966 0.338,0.426 0.877,0.639 1.413,0.549 0.536,-0.085 0.98,-0.454 1.165,-0.965 1.776,-4.884 4.133,-9.712 6.585,-14.133 l 0.028,-0.047 c 3.051,-6.045 9.218,-11.8999999 15.713998,-13.2169999 1.673,-0.35 3.51,-0.448 5.408,-0.448 1.849,0 3.745,0.09 5.606,0.09 1.055,-0.003 2.768,-0.003 4.577,-0.003 3.615,0 7.623,0.003 7.633,0.003 0.01,0 4.015,-0.003 7.63,-0.003 1.809,0 3.517,0 4.57,0.003 1.865,0 3.762,-0.09 5.615,-0.09 1.894,0 3.738,0.097 5.401,0.448 6.496,1.318 12.668,7.1719999 15.722,13.2169999 l 0.025,0.047 c 2.452,4.421 4.802,9.249 6.583,14.133 0.185,0.511 0.634,0.88 1.17,0.965 a 1.491,1.491 0 0 0 1.412,-0.549 c 5.045,-6.39 10.296,-12.763 16.35,-17.966 3.167,-2.72 6.772,-5.7489999 10.627,-8.0659999 3.858,-2.322 7.933,-3.908 12.039,-3.905 h 0.04 c 3.795,0 7.59,0.007 11.393,0.007 5.42,0.01 10.849,0.015 16.282,0.025 h 0.116 c 0.976,0 2.136,-0.05 3.324,-0.05 1.698,-0.007 3.454,0.123 4.561,0.534 0.556,0.2 0.927,0.446 1.123,0.681 0.192,0.24 0.305,0.469 0.315,0.987 0,0.32 -0.065,0.76 -0.24,1.305 z m 2.197,-4.238 c -1,-1.145 -2.368,-1.63599996 -3.74,-1.92099996 -1.386,-0.284 -2.846,-0.3390000037695 -4.216,-0.3390000037695 -1.27,0 -2.453,0.053000003769 -3.324,0.053000003769 h -0.113 c -5.431,-0.01 -10.86,-0.015 -16.285,-0.025 -3.8,0 -7.593,-0.01 -11.393,-0.01 h 0.007 l -0.047,-0.003 c -4.885,0.005 -9.457,1.85699996 -13.582,4.33699996 -4.126,2.485 -7.843,5.623 -11.03,8.3559999 -5.659,4.873 -10.53,10.609 -15.133,16.363 -1.695,-4.226 -3.717,-8.334 -5.824,-12.127 -3.442,-6.683 -9.997,-13.0899999 -17.748,-14.7419999 -1.984,-0.416 -4.018,-0.508 -6.012,-0.508 -1.944,0 -3.85,0.087 -5.608,0.087 -1.055,-0.002 -2.766,-0.002 -4.577,-0.002 l -7.63,0.002 -7.633,-0.002 c -1.811,0 -3.522,0 -4.584,0.002 -1.756,0 -3.658,-0.087 -5.599,-0.087 -1.996,0 -4.028,0.092 -6.022,0.51 -7.764998,1.654 -14.330998,8.0839999 -17.767998,14.7879999 h 0.003 c -2.095,3.777 -4.114,7.868 -5.802,12.079 -4.6,-5.754 -9.471,-11.495 -15.13,-16.363 -3.184,-2.7329999 -6.902,-5.8709999 -11.027,-8.3559999 -4.129,-2.48 -8.698,-4.33199996 -13.585,-4.33699996 l -0.08,0.003 c -3.785,0 -7.575,0.01 -11.355,0.01 -5.429,0.01 -10.847,0.015 -16.278,0.025 h -0.11 c -0.877,0 -2.062,-0.053000003769 -3.327,-0.053000003769 C 7.175272,0.00500214 5.183272,0.08800214 3.425272,0.70700214 c -0.882,0.31499996 -1.726,0.78899996 -2.39,1.55299996 -0.66100005,0.755 -1.04700005,1.811 -1.03500004642,2.933 0,0.704 0.13599999642,1.44 0.38099999642,2.22 0.383,1.142 1.09000005,2.001 1.75600005,2.7649999 0.681,0.754 1.358,1.42 1.761,1.947 1.14,1.473 2.245,2.93 3.181,4.446 l 0.003,0.002 a 198.617,198.617 0 0 1 4.557,7.653 c 3.52,6.198 6.515,12.818 10.087,19.204 7.79,13.95 16.145,27.625 26.273,40.147 7.154,8.818 15.796,17.790998 26.57,22.689998 -8.12,15.103 -16.212,30.219 -24.306,45.324 -7.222,13.464 -14.441,26.846 -22.044,40.07 l -0.002,0.005 c -0.356,0.624 -0.742,1.273 -1.11,1.971 -0.496,0.932 -1.127,2.095 -1.646,3.35 -0.51,1.255 -0.942,2.597 -0.947,4.008 v 0.062 h 0.003 c -0.005,1.438 0.606,2.718 1.505,3.555 1.37,1.28 3.16,1.766 4.865,2.059 1.71,0.27 3.394,0.29 4.554,0.296 0.378,0.002 0.762,0.005 1.135,0.005 2.95,0 5.882,-0.076 8.787,-0.103 5.737,-0.065 11.466,-0.145 17.187,-0.198 a 154.47,154.47 0 0 1 1.526,-0.008 c 0.801,0 1.61,0.003 2.425,0.003 2.099,0 4.246,-0.025 6.392,-0.233 8.998,-0.864 17.257,-5.376 22.588,-12.776 0.258,-0.353 0.669,-0.994 1.27,-1.933 4.155998,-6.541 16.622998,-26.99 22.079998,-35.925 1.167,-1.914 3.604,-5.766 5.743,-9.135 1.04,-1.634 2,-3.147 2.723,-4.279 0.722,1.132 1.681,2.645 2.72,4.279 2.14,3.369 4.572,7.221 5.745,9.135 a 8625.79,8625.79 0 0 0 13.359,21.856 c 2.42,3.94 4.697,7.633 6.473,10.486 0.887,1.428 1.65,2.646 2.242,3.583 0.598,0.939 1.012,1.578 1.265,1.931 5.338,7.402 13.594,11.914 22.587,12.778 2.152,0.208 4.297,0.233 6.396,0.233 0.816,0 1.623,-0.003 2.425,-0.003 0.513,0 1.017,0.003 1.523,0.008 5.721,0.053 11.453,0.133 17.189,0.198 2.908,0.027 5.837,0.103 8.788,0.103 0.375,0 0.759,-0.003 1.134,-0.005 1.553,-0.015 4.01,-0.033 6.27,-0.677 1.13,-0.328 2.245,-0.816 3.15,-1.676 0.913,-0.844 1.532,-2.136 1.512,-3.59 v -0.03 c -0.002,-1.41 -0.43,-2.752 -0.944,-4.01 -0.524,-1.255 -1.155,-2.42 -1.659,-3.357 -0.365,-0.683 -0.746,-1.33 -1.104,-1.961 l -0.003,-0.005 c -7.597,-13.224 -14.817,-26.606 -22.034,-40.07 -8.104,-15.105 -16.197,-30.22 -24.318,-45.323 10.774,-4.9 19.416,-13.872998 26.568,-22.687998 10.135,-12.525 18.484,-26.2 26.282,-40.15 3.57,-6.386 6.563,-13.006 10.085,-19.204 a 200.994,200.994 0 0 1 4.554,-7.647 l 0.008,-0.013 c 0.932,-1.508 2.044,-2.968 3.179,-4.449 l -0.008,0.01 c 0.411,-0.528 1.09,-1.197 1.766,-1.951 0.67,-0.7639999 1.373,-1.6209999 1.754,-2.7579999 0.25,-0.784 0.383,-1.52 0.383,-2.225 0.015,-1.122 -0.37,-2.174 -1.034,-2.933 z"
       id="svg_6"
       class=""
       inkscape:connector-curvature="0"
       style="fill:#2a2d2c" />
    <path
       d="m 455.57384,80.126101 c -6.01059,2.861288 -8.25386,7.690886 -8.25386,21.031949 0,0 3.04517,-2.673578 7.56124,-4.157855 3.28884,-1.086056 6.10068,-2.73123 7.72812,-3.811923 5.08021,-3.378841 5.86291,-7.732451 5.86291,-15.054615 0,0 -8.28192,-0.203803 -12.89841,1.992444"
       id="svg_7"
       class=""
       inkscape:connector-curvature="0"
       style="fill:#f9c638" />
    <path
       d="m 416.22428,80.877481 c -5.35392,4.718545 -6.91978,12.239835 -6.91978,12.239835 l -17.72276,68.670474 -14.74425,-56.20003 c -1.43523,-5.974785 -4.0235,-13.362226 -8.11634,-18.35653 -5.21846,-6.36665 -15.82309,-6.761743 -16.94871,-6.761743 -1.13206,0 -11.73669,0.395093 -16.95193,6.761743 -4.09607,4.994304 -6.68433,12.381745 -8.11957,18.35653 l -14.73941,56.20003 -17.7276,-68.670474 c 0,0 -1.56263,-7.52129 -6.91494,-12.239835 -8.68077,-7.655137 -21.70111,-6.015096 -21.70111,-6.015096 l 33.94094,128.336035 c 0,0 11.19808,0.80309 16.80035,-2.05287 7.36164,-3.74936 10.86265,-6.64402 15.31995,-24.10393 3.97028,-15.56991 15.0716,-61.29432 16.1053,-64.55021 0.51281,-1.60779 1.1627,-5.4539 3.98641,-5.4539 2.88821,0 3.48327,3.84289 3.98802,5.4539 1.01757,3.26073 12.13502,48.9803 16.10531,64.55021 4.45084,17.45829 7.95831,20.35457 15.31511,24.10393 5.60226,2.85596 16.80034,2.05287 16.80034,2.05287 L 437.92056,74.862385 c 0,0 -13.01551,-1.640041 -21.69628,6.015096 m 53.01187,14.937759 c 0,0 -2.12544,3.281695 -6.96816,5.99091 -3.11237,1.73841 -6.09572,2.91724 -9.30001,4.45085 -5.36844,2.5802 -6.82141,5.44745 -6.82141,9.82573 v 87.11408 c 0,0 8.56304,1.08368 14.16531,-1.77389 7.21489,-3.67518 8.87106,-7.21812 8.93233,-23.17828 v -77.78342 h -0.008 v -4.644367 m 84.60483,43.521557 43.06358,-64.051904 c 0,0 -18.1743,-3.094631 -27.17437,5.097512 -5.75707,5.244261 -12.19952,14.66845 -12.19952,14.66845 l -15.84405,22.844462 c -0.76761,1.1869 -1.77711,2.48022 -3.38007,2.48022 -1.60778,0 -2.61406,-1.29332 -3.38167,-2.48022 L 519.0776,95.052468 c 0,0 -6.43922,-9.424189 -12.19952,-14.66845 -9.00168,-8.192143 -27.17598,-5.097512 -27.17598,-5.097512 l 43.0668,64.053524 -42.95231,63.85839 c 0,0 18.92901,2.38669 27.92586,-5.80545 5.7603,-5.24104 11.33515,-13.76377 11.33515,-13.76377 l 15.84728,-22.84285 c 0.76761,-1.18851 1.77389,-2.48184 3.38167,-2.48184 1.60296,0 2.61246,1.29333 3.38007,2.48184 l 15.84405,22.84285 c 0,0 5.90222,8.52434 11.66252,13.76377 9.00007,8.19214 27.59849,5.80545 27.59849,5.80545 L 553.8426,139.33841"
       id="svg_8"
       class=""
       inkscape:connector-curvature="0"
       style="fill:#ffffff" />
    <path
       class=""
       id="path3778"
       d="m 139.60324,75.328627 h -0.019 0.0271 z m -29.11259,0 h -0.0406 z m -2.20902,-5.441307 c -0.17082,0.341385 -0.26503,0.780205 -0.2653,1.234502 0.0136,0.52889 0.15322,1.023165 0.38712,1.357953 0.6443,0.987602 1.30755,2.013188 2.0818,2.848852 3.96595,4.82406 8.84151,7.369034 14.53733,7.511478 5.7987,-0.142438 10.39542,-2.530732 14.58066,-7.516226 0.7201,-0.807175 1.46457,-1.709311 2.17654,-2.844104 0.51436,-0.759695 0.75258,-1.922977 0.379,-2.696915 -0.379,-0.726456 -1.04225,-0.940123 -1.74069,-0.06173 -0.62356,0.915623 -1.27419,1.773032 -1.94915,2.568718 h -0.019 c -3.84413,4.558164 -8.08893,5.718057 -13.42741,5.869996 -5.2329,-0.151939 -9.75653,-1.454275 -13.37868,-5.855754 0,-0.0142 -0.0135,-0.0142 -0.0325,-0.0142 -0.64972,-0.769189 -1.24799,-1.685569 -1.83273,-2.563968 -0.43678,-0.690752 -1.11179,-0.617963 -1.49705,0.161439 z"
       inkscape:connector-curvature="0"
       style="fill:#2a2d2c;stroke-width:3.58521128"
       sodipodi:nodetypes="cccccccccccccccccccccccc" />
  </g>
</svg>
